<svg xmlns="http://www.w3.org/2000/svg" viewBox="0 0 32 32"><rect width="24" height="18" x="6" y="2" fill="#ff9797" rx="2" ry="2"/><path fill="#6d6daa" d="M28,21H8a3,3,0,0,1-3-3V4A3,3,0,0,1,8,1H28a3,3,0,0,1,3,3V18A3,3,0,0,1,28,21ZM8,3A1,1,0,0,0,7,4V18a1,1,0,0,0,1,1H28a1,1,0,0,0,1-1V4a1,1,0,0,0-1-1Z"/><path fill="#ffc661" d="M24,6H4A2,2,0,0,0,2,8V22a2,2,0,0,0,2,2H6v6l7.53-6H24a2,2,0,0,0,2-2V8A2,2,0,0,0,24,6Z"/><path fill="#6d6daa" d="M6,31a1,1,0,0,1-.43-.1A1,1,0,0,1,5,30V25H4a3,3,0,0,1-3-3V8A3,3,0,0,1,4,5H24a3,3,0,0,1,3,3V22a3,3,0,0,1-3,3H13.86L6.61,30.78A1,1,0,0,1,6,31ZM4,7A1,1,0,0,0,3,8V22a1,1,0,0,0,1,1H6a1,1,0,0,1,1,1v3.92l5.91-4.7a1,1,0,0,1,.62-.22H24a1,1,0,0,0,1-1V8a1,1,0,0,0-1-1Z"/><circle cx="7.02" cy="15" r="2" fill="#eef5fd"/><path fill="#6d6daa" d="M7,18a3,3,0,1,1,3-3A3,3,0,0,1,7,18Zm0-4a1,1,0,1,0,1,1A1,1,0,0,0,7,14Z"/><circle cx="14.02" cy="15" r="2" fill="#eef5fd"/><path fill="#6d6daa" d="M14,18a3,3,0,1,1,3-3A3,3,0,0,1,14,18Zm0-4a1,1,0,1,0,1,1A1,1,0,0,0,14,14Z"/><circle cx="21.02" cy="15" r="2" fill="#eef5fd"/><path fill="#6d6daa" d="M21,18a3,3,0,1,1,3-3A3,3,0,0,1,21,18Zm0-4a1,1,0,1,0,1,1A1,1,0,0,0,21,14Z"/></svg>